<svg width="150" height="150" viewBox="0 0 467 467" fill="none" xmlns="http://www.w3.org/2000/svg">
  <rect width="467" height="467" rx="45" fill="#5B6BCC"/>
  <path d="M339.115 405.723C339.115 262 349.999 63 239 63C128 63 128 262 128 405.723" stroke="white" stroke-width="30"/>
  <rect x="61" y="229" width="345" height="166" rx="64" stroke="white" stroke-width="30"/>
  <path d="M94 412L367 413.004" stroke="#5B6BCC" stroke-width="66"/>
  <path d="M88.1497 401.149C93.4349 404.009 99.6191 405.672 106.026 405.956C112.433 406.241 118.816 405.135 124.478 402.762C130.139 400.388 134.861 396.837 138.127 392.497C141.394 388.157 143.078 383.195 142.997 378.153L108 378.5L88.1497 401.149Z" fill="white"/>
  <path d="M88.1497 401.149C93.4349 404.009 99.6191 405.672 106.026 405.956C112.433 406.241 118.816 405.135 124.478 402.762C130.139 400.388 134.861 396.837 138.127 392.497C141.394 388.157 143.078 383.195 142.997 378.153L108 378.5L88.1497 401.149Z" fill="white"/>
  <path d="M376.758 401.82C371.698 404.844 365.754 406.618 359.582 406.945C353.411 407.272 347.253 406.139 341.792 403.673C336.331 401.206 331.778 397.502 328.639 392.97C325.499 388.438 323.896 383.255 324.005 377.995L357.5 378.5L376.758 401.82Z" fill="white"/>
  <ellipse cx="101" cy="317" rx="34" ry="82" fill="white"/>
  <ellipse cx="369" cy="312" rx="34" ry="79" fill="white"/>
</svg>
